<?xml version="1.0" encoding="UTF-8"?>
<svg width="384px" height="384px" viewBox="0 0 384 384" version="1.1" xmlns="http://www.w3.org/2000/svg" xmlns:xlink="http://www.w3.org/1999/xlink">
    <!-- Generator: Sketch 43.2 (39069) - http://www.bohemiancoding.com/sketch -->
    <title>icon-o</title>
    <desc>Created with Sketch.</desc>
    <defs></defs>
    <g id="Page-1" stroke="none" stroke-width="1" fill="none" fill-rule="evenodd">
        <g id="icon-o">
            <polygon id="path3707" stroke="#000000" stroke-width="0.92387" points="254.388477 82.9978261 236.833185 110.926145 258.267424 132.261275 277.003687 102.453072 254.387506 82.9978261"></polygon>
            <path d="M260.196214,61.4995652 C272.033119,68.9372449 280.905942,78.2194638 285.41228,86.4497826 C289.91852,94.6801986 290.012337,100.627565 287.429449,104.735928 L180.277679,275.207232 L97.4679012,320.386594 L102.267442,226.188478 L209.419212,55.7171739 C212.002003,51.6081319 217.402324,49.1133043 226.774438,49.6030841 C236.146163,50.0928832 248.360183,54.0607203 260.197088,61.4980116 L260.196214,61.4995652 Z" id="path3687" fill="#FFFFFF" fill-rule="nonzero"></path>
            <path d="M255.689877,68.6365217 C241.617284,59.7905797 226.942551,54.6713913 213.481811,53.9683768 C200.02107,53.2643913 186.676872,57.4698551 179.655144,68.6365217 L288.691029,137.151304 C295.709358,125.985609 293.712681,112.136029 287.240066,100.313928 C280.767547,88.4918261 269.765383,77.4795507 255.688905,68.6355507 L255.689877,68.6365217 Z M245.946864,84.1358551 C257.78377,91.5735348 266.642025,100.879058 271.148362,109.109377 C275.654602,117.339793 275.772214,123.301725 273.189325,127.411058 L195.154905,78.3787101 C197.737697,74.2696681 203.138018,71.7748406 212.510132,72.2646203 C221.881954,72.7544291 234.110444,76.6984667 245.94735,84.1362435 L245.946864,84.1358551 Z M269.928543,45.9953768 C255.852066,37.1506 241.180247,32.0302464 227.718535,31.3262609 C214.256823,30.6227317 200.909712,34.8309435 193.890897,45.9963478 L85.4862881,218.458232 L84.2181037,220.475806 L84.0724635,222.867609 L78.3228043,335.806304 L77.4945608,352.139739 L91.8546267,344.309575 L191.13973,290.145416 L193.255766,288.991754 L194.52395,286.97418 L302.928559,114.512296 C309.946888,103.3466 307.950212,89.4970203 301.477596,77.6749188 C295.004981,65.8528174 284.002913,54.840542 269.926436,45.996542 L269.928543,45.9953768 Z M260.170963,61.5189855 C272.007868,68.9566652 280.880691,78.2388841 285.387029,86.4692029 C289.893269,94.6996188 290.010784,100.661551 287.427992,104.770884 L180.305358,275.193638 L97.4411934,320.406014 L102.240734,226.207899 L209.392504,55.7365942 C211.975295,51.6275522 217.375616,49.1327246 226.74773,49.6225043 C236.119552,50.1122938 248.333475,54.0800435 260.17038,61.5174319 L260.170963,61.5189855 Z" id="path3765" fill="#000000" fill-rule="nonzero"></path>
            <path d="M233.080494,104.661159 C219.273037,95.985242 204.868296,90.9844203 191.898008,90.3066522 C178.92772,89.6287675 166.536263,93.6170348 160.049663,103.935812 L265.3853,170.123072 C271.871319,159.804101 270.091024,146.911942 263.854505,135.520971 C257.61789,124.13 246.887756,113.337174 233.0803,104.661159 L233.080494,104.661159 Z M225.680194,116.433739 C237.78612,124.040278 246.89203,133.550783 251.634367,142.212232 C256.37651,150.873584 256.701763,157.753319 253.58666,162.709377 L171.84908,111.349507 C174.964183,106.393741 181.30559,103.702671 191.168059,104.218086 C201.030528,104.733529 213.574463,108.827491 225.680388,116.434419 L225.680194,116.433739 Z" id="path3605" fill="#000000" fill-rule="nonzero"></path>
            <path d="M97.8126749,300.708986 L96.7389235,321.523652 L115.031351,311.529 C111.837582,304.923091 106.344706,301.416855 97.8130634,300.709957 L97.8126749,300.708986 Z" id="path3749" fill="#000000" fill-rule="nonzero"></path>
            <path d="M223.591934,115.099565 L158.334535,218.920435 C141.335737,229.039377 125.388741,227.733168 110.563473,224.530957 L103.728311,223.094535 L100.501133,228.737586 L104.76069,229.75851 C121.364212,233.731513 141.437809,236.622806 162.188328,223.958058 L162.81636,223.591141 L163.219201,222.950261 L228.909752,118.439972 L223.591886,115.098517 L223.591934,115.099565 Z" id="path3802" fill="#000000" fill-rule="nonzero"></path>
            <path d="M229.564774,118.857391 L164.307374,222.678261 C162.561072,242.380145 170.654609,256.180203 179.970782,268.147957 L184.229951,273.682642 L180.544077,279.037496 L177.776467,275.642926 C166.986509,262.398288 155.672105,245.570607 158.090377,221.382636 L158.148649,220.657696 L158.55148,220.016827 L224.242032,115.506537 L229.559898,118.847992 L229.564774,118.857391 Z" id="path3808" fill="#000000" fill-rule="nonzero"></path>
        </g>
    </g>
</svg>